<?xml version="1.0" standalone="no"?><svg xmlns="http://www.w3.org/2000/svg" viewBox="0 0 1440 320"><path fill="#6f3399" fill-opacity="1" d="M0,64L0,224L120,224L120,96L240,96L240,288L360,288L360,96L480,96L480,128L600,128L600,96L720,96L720,224L840,224L840,128L960,128L960,256L1080,256L1080,128L1200,128L1200,96L1320,96L1320,64L1440,64L1440,320L1320,320L1320,320L1200,320L1200,320L1080,320L1080,320L960,320L960,320L840,320L840,320L720,320L720,320L600,320L600,320L480,320L480,320L360,320L360,320L240,320L240,320L120,320L120,320L0,320L0,320Z"></path></svg>